<?xml version="1.0" encoding="utf-8"?>
<!-- Generator: Adobe Illustrator 16.0.0, SVG Export Plug-In . SVG Version: 6.00 Build 0)  -->
<!DOCTYPE svg PUBLIC "-//W3C//DTD SVG 1.1//EN" "http://www.w3.org/Graphics/SVG/1.1/DTD/svg11.dtd" [
	<!ENTITY ns_extend "http://ns.adobe.com/Extensibility/1.0/">
	<!ENTITY ns_ai "http://ns.adobe.com/AdobeIllustrator/10.0/">
	<!ENTITY ns_graphs "http://ns.adobe.com/Graphs/1.0/">
	<!ENTITY ns_vars "http://ns.adobe.com/Variables/1.0/">
	<!ENTITY ns_imrep "http://ns.adobe.com/ImageReplacement/1.0/">
	<!ENTITY ns_sfw "http://ns.adobe.com/SaveForWeb/1.0/">
	<!ENTITY ns_custom "http://ns.adobe.com/GenericCustomNamespace/1.0/">
	<!ENTITY ns_adobe_xpath "http://ns.adobe.com/XPath/1.0/">
]>
<svg version="1.1" id="Layer_1" xmlns:x="&ns_extend;" xmlns:i="&ns_ai;" xmlns:graph="&ns_graphs;"
	 xmlns="http://www.w3.org/2000/svg" xmlns:xlink="http://www.w3.org/1999/xlink" x="0px" y="0px" width="256px" height="256px"
	 viewBox="0 0 256 256" enable-background="new 0 0 256 256" xml:space="preserve">
<metadata>
	<sfw  xmlns="&ns_sfw;">
		<slices></slices>
		<sliceSourceBounds  width="256" height="256" y="-255.74" bottomLeftOrigin="true" x="-0.368"></sliceSourceBounds>
	</sfw>
</metadata>
<g>
	<g>
		<rect x="-0.368" y="-0.259" fill="#3D27D9" width="256" height="256"/>
	</g>
	<g>
		<g>
			<path fill="#FFFFFF" d="M67.858,61.777h5.31v12.896h0.127L85.77,61.777h7.165l-13.95,13.781l14.877,16.057h-7.46L73.295,76.654
				h-0.127v14.961h-5.31V61.777z"/>
		</g>
	</g>
	<g>
		<g>
			<path fill="#FFFFFF" d="M161.644,180.471c0-2.389,0.399-4.545,1.2-6.471c0.802-1.924,1.91-3.561,3.33-4.909
				c1.418-1.349,3.104-2.388,5.058-3.119c1.952-0.729,4.081-1.096,6.385-1.096c2.332,0,4.48,0.366,6.447,1.096
				c1.967,0.731,3.667,1.771,5.101,3.119c1.433,1.349,2.549,2.985,3.35,4.909c0.802,1.926,1.201,4.082,1.201,6.471
				c0,2.332-0.399,4.46-1.201,6.385c-0.801,1.924-1.917,3.582-3.35,4.973c-1.434,1.391-3.134,2.473-5.101,3.244
				c-1.967,0.773-4.115,1.16-6.447,1.16c-2.304,0-4.433-0.387-6.385-1.16c-1.953-0.771-3.64-1.854-5.058-3.244
				c-1.42-1.391-2.528-3.049-3.33-4.973C162.043,184.931,161.644,182.803,161.644,180.471z M167.417,180.471
				c0,1.601,0.245,3.069,0.738,4.403c0.491,1.335,1.193,2.493,2.106,3.478c0.912,0.982,1.994,1.749,3.245,2.296
				c1.249,0.549,2.634,0.821,4.151,0.821c1.517,0,2.908-0.272,4.172-0.821c1.265-0.547,2.354-1.313,3.267-2.296
				c0.913-0.984,1.616-2.143,2.107-3.478c0.491-1.334,0.737-2.803,0.737-4.403c0-1.545-0.246-2.979-0.737-4.301
				c-0.491-1.319-1.187-2.471-2.087-3.455c-0.899-0.982-1.98-1.755-3.244-2.318c-1.266-0.562-2.67-0.842-4.215-0.842
				s-2.943,0.28-4.193,0.842c-1.251,0.563-2.325,1.336-3.225,2.318c-0.899,0.984-1.594,2.136-2.085,3.455
				C167.662,177.492,167.417,178.926,167.417,180.471z"/>
		</g>
	</g>
	<path fill="#FFFFFF" d="M88.931,158.531l-3.017-3.018l1.508-1.508c4.834-4.834,11.017-3.361,16.471-2.062
		c4.999,1.191,9.316,2.219,12.465-0.927c3.148-3.149,2.12-7.467,0.929-12.467c-1.299-5.454-2.772-11.637,2.062-16.471
		c4.835-4.835,11.018-3.363,16.472-2.063c4.999,1.189,9.317,2.219,12.467-0.93c3.148-3.148,2.121-7.467,0.93-12.467
		c-1.299-5.455-2.771-11.638,2.064-16.472l1.508-1.509l3.018,3.018l-1.51,1.508c-3.147,3.149-2.121,7.467-0.93,12.468
		c1.299,5.455,2.771,11.638-2.063,16.472c-4.834,4.835-11.018,3.363-16.472,2.063c-5.001-1.191-9.319-2.219-12.467,0.93
		c-3.148,3.148-2.119,7.466-0.928,12.466c1.299,5.454,2.771,11.638-2.063,16.471c-4.834,4.835-11.016,3.361-16.471,2.062
		c-5-1.192-9.317-2.22-12.465,0.928L88.931,158.531z"/>
</g>
</svg>
